<svg xmlns="http://www.w3.org/2000/svg" width="50" height="40" viewBox="0 0 50 40">
  <path id="Icon_simple-coffeescript" data-name="Icon simple-coffeescript" d="M9.668,14.134a70.253,70.253,0,0,0,16.683,1.657,69.29,69.29,0,0,0,16.683-1.657c4.645-1.077,6.873-2.527,6.873-3.894,0-.974-1-1.926-2.812-2.651a1.512,1.512,0,0,1,.729,1.222c0,1.388-2.1,2.527-6.332,3.48a71.235,71.235,0,0,1-15,1.45,73.615,73.615,0,0,1-14.871-1.409C7.564,11.337,5.44,10.26,5.44,8.852c0-.58.271-1.077,1.083-1.657C3.982,8.168,2.607,9,2.607,10.24c.146,1.409,2.416,2.817,7.061,3.894ZM19.436,9.66c4.728-.414,6.1-3.439,11.643-3.936,2.728-.207,4.457.331,4.645,1.284.167.891-1.187,1.491-2.833,1.616-2.27.228-3.208-.58-3.395-1.346-1.687.186-1.958.891-1.875,1.388.187.953,2.229,1.906,5.728,1.574,3.957-.311,5.29-1.864,4.957-3.418-.417-2.03-3.457-3.729-8.914-3.211-7,.621-6.957,3.853-11.726,4.246-1.958.186-3.041-.269-3.228-1.036-.125-.766.833-1.139,1.958-1.222a5.916,5.916,0,0,1,2.916.414c.437-.228.583-.456.542-.725-.208-.725-1.645-1.036-3.457-.911-3.541.311-3.541,1.885-3.416,2.589.354,1.8,3.083,3,6.457,2.693Zm23.786,7.954a74.731,74.731,0,0,1-16.683,1.678A79.065,79.065,0,0,1,9.709,17.635c-3.916-.994-6-2.092-6.727-3.231a38.822,38.822,0,0,0,1.854,7.354A10.222,10.222,0,0,0,2.128,24.18,9.33,9.33,0,0,0,0,30.6a7.446,7.446,0,0,0,2.958,5.427,7.119,7.119,0,0,0,6,1.409,20.232,20.232,0,0,0,2.687-.87,7.553,7.553,0,0,1-4.915-1.8,7.348,7.348,0,0,1-3.1-5.013,6.655,6.655,0,0,1,1.1-5.344,6.14,6.14,0,0,1,.812-.829,47.2,47.2,0,0,0,2.041,4.391c1.687,2.548,3.374,4.764,5.061,7.167a18.255,18.255,0,0,1,1.541,4.184,8.125,8.125,0,0,0,4.645,3.107,19.332,19.332,0,0,0,7.456,1.056h.271a21.353,21.353,0,0,0,7.686-1.077,8.707,8.707,0,0,0,4.5-3.086h.146a17.641,17.641,0,0,1,1.4-4.184c1.666-2.424,3.374-4.619,5.04-7.167a43.341,43.341,0,0,0,4.666-13.547C49.1,15.667,46.992,16.765,43.222,17.614Z" transform="translate(0.009 -3.517)" fill="#fff"/>
</svg>
