<svg xmlns="http://www.w3.org/2000/svg" width="55" height="50" viewBox="0 0 55 50">
  <path id="Icon_awesome-shopping-bag" data-name="Icon awesome-shopping-bag" d="M43.214,28.6V19.953l-6.679-4H18.464l-6.679,4V28.6H0V57.46c0,4.689,4.4,8.489,9.821,8.489H45.179c5.424,0,9.821-3.8,9.821-8.489V28.6ZM19.643,25.2c0-3.745,7.755-3.658,7.755-3.658s7.959-.087,7.959,3.658v3.4H19.643ZM39.286,46.084a2.574,2.574,0,1,1,2.946-2.547A2.769,2.769,0,0,1,39.286,46.084Zm-23.571,0a2.574,2.574,0,1,1,0-5.094,2.574,2.574,0,1,1,0,5.094Z" transform="translate(0 -15.949)" fill="#fff"/>
</svg>
