<svg xmlns="http://www.w3.org/2000/svg" width="40" height="40" viewBox="0 0 40 40">
  <path id="Icon_ionic-ios-happy" data-name="Icon ionic-ios-happy" d="M23.375,3.375a20,20,0,1,0,20,20A20,20,0,0,0,23.375,3.375ZM30.3,17.99A2.308,2.308,0,1,1,27.99,20.3,2.3,2.3,0,0,1,30.3,17.99Zm-13.846,0A2.308,2.308,0,1,1,14.144,20.3,2.3,2.3,0,0,1,16.452,17.99Zm6.923,16.25a9.44,9.44,0,0,1-9.058-6.8.772.772,0,0,1,.74-.99H31.683a.774.774,0,0,1,.74.99A9.42,9.42,0,0,1,23.375,34.24Z" transform="translate(-3.375 -3.375)" fill="#fff"/>
</svg>
