<svg xmlns="http://www.w3.org/2000/svg" width="22" height="22" viewBox="0 0 22 22">
  <path id="Icon_awesome-linkedin" data-name="Icon awesome-linkedin" d="M20.429,2.25H1.567A1.578,1.578,0,0,0,0,3.836V22.664A1.578,1.578,0,0,0,1.567,24.25H20.429A1.582,1.582,0,0,0,22,22.664V3.836A1.582,1.582,0,0,0,20.429,2.25ZM6.649,21.107H3.388v-10.5H6.654v10.5ZM5.019,9.174A1.891,1.891,0,1,1,6.909,7.283,1.891,1.891,0,0,1,5.019,9.174ZM18.872,21.107H15.611V16c0-1.218-.025-2.784-1.694-2.784-1.7,0-1.959,1.326-1.959,2.7v5.2H8.7v-10.5h3.128v1.434h.044a3.434,3.434,0,0,1,3.089-1.694c3.3,0,3.914,2.175,3.914,5Z" transform="translate(0 -2.25)"/>
</svg>
