<svg xmlns="http://www.w3.org/2000/svg" width="30.849" height="14.461" viewBox="0 0 30.849 14.461">
  <path id="Icon_metro-infinite" data-name="Icon metro-infinite" d="M26.189,24.583a7.182,7.182,0,0,1-5.112-2.117l-3.081-3.081-3.081,3.081a7.23,7.23,0,1,1,0-10.225l3.081,3.081,3.081-3.081a7.23,7.23,0,1,1,5.113,12.343Zm-3.081-4.149a4.357,4.357,0,1,0,0-6.163l-3.081,3.081,3.081,3.081ZM9.8,13a4.357,4.357,0,1,0,3.081,7.438l3.081-3.081-3.081-3.081A4.328,4.328,0,0,0,9.8,13Z" transform="translate(-2.571 -10.122)" fill="#fff"/>
</svg>
