<svg id="instagram_1" data-name="instagram 1" xmlns="http://www.w3.org/2000/svg" width="20" height="20" viewBox="0 0 20 20">
  <g id="Group">
    <g id="Group-2" data-name="Group">
      <path id="Vector" d="M17.07,0H2.93A2.933,2.933,0,0,0,0,2.93V17.07A2.933,2.933,0,0,0,2.93,20H17.07A2.933,2.933,0,0,0,20,17.07V2.93A2.933,2.933,0,0,0,17.07,0Zm1.758,17.07a1.76,1.76,0,0,1-1.758,1.758H2.93A1.76,1.76,0,0,1,1.172,17.07V2.93A1.76,1.76,0,0,1,2.93,1.172H17.07A1.76,1.76,0,0,1,18.828,2.93Z" fill="#07111a"/>
    </g>
    <g id="Group-3" data-name="Group" transform="translate(16.219 1.906)">
      <path id="Vector-2" data-name="Vector" d="M.938,0a.938.938,0,1,0,.938.938A.939.939,0,0,0,.938,0Z" fill="#07111a"/>
    </g>
    <g id="Group-4" data-name="Group" transform="translate(5.781 5.781)">
      <path id="Vector-3" data-name="Vector" d="M4.219,0A4.219,4.219,0,1,0,8.438,4.219,4.223,4.223,0,0,0,4.219,0Zm0,7.5A3.281,3.281,0,1,1,7.5,4.219,3.285,3.285,0,0,1,4.219,7.5Z" fill="#07111a"/>
    </g>
  </g>
</svg>
