<svg xmlns="http://www.w3.org/2000/svg" width="245.363" height="139.631" viewBox="0 0 245.363 139.631">
  <g id="Group_4" data-name="Group 4" transform="translate(-425 -341.959)">
    <g id="Group_3" data-name="Group 3" transform="translate(425 343.289)">
      <path id="Path_23" data-name="Path 23" d="M378.162,330.991l-2.249,2.549-12.856,14.636a46.185,46.185,0,0,0-35.531-16.622h-1.312v.112H306.35l19.864-22.675v.075c.506-.019,1.012-.019,1.5-.019a68.82,68.82,0,0,1,50.448,21.945Z" transform="translate(-151.407 -308.99)" fill="#fff"/>
      <path id="Path_24" data-name="Path 24" d="M409.607,361.567a69.06,69.06,0,0,1-69.053,69.057c-.585,0-1.184,0-1.765-.019l-47.126-.021,4.642-4.833h.019l16.191-18.346h23.462q1.405.141,2.811.169c.525.037,1.049.037,1.574.037A46.343,46.343,0,0,0,384.4,346.894l16.566-18.834A68.776,68.776,0,0,1,409.607,361.567Z" transform="translate(-164.244 -292.323)" fill="#fff"/>
      <path id="Path_25" data-name="Path 25" d="M315.352,339.047v54.029l-1.687,1.718-20,20.6V339.047Z" transform="translate(-166.238 -277.098)" fill="#fff"/>
      <path id="Path_26" data-name="Path 26" d="M306.35,330.991l2.249,2.549,12.855,14.636a46.185,46.185,0,0,1,35.531-16.622H358.3v.112h19.864L358.3,308.99v.075c-.506-.019-1.012-.019-1.5-.019a68.82,68.82,0,0,0-50.448,21.945Z" transform="translate(-287.741 -308.99)" fill="#fff" stroke="rgba(0,0,0,0)" stroke-width="1"/>
      <path id="Path_27" data-name="Path 27" d="M301.86,361.567a69.06,69.06,0,0,0,69.053,69.057c.585,0,1.184,0,1.765-.019l47.225-.071-20.951-23.129H375.49q-1.406.141-2.811.169c-.525.037-1.05.037-1.574.037a46.342,46.342,0,0,1-44.039-60.718L310.5,328.06A68.776,68.776,0,0,0,301.86,361.567Z" transform="translate(-301.86 -292.323)" fill="#fff"/>
      <path id="Path_28" data-name="Path 28" d="M293.67,339.047v53.362l1.687,1.7,20,20.35v-75.41Z" transform="translate(-197.224 -276.155)" fill="#fff"/>
      <path id="Path_29" data-name="Path 29" d="M462.537,343.289H566.973v22.574H462.537Z" transform="translate(-391.574 -343.289)" fill="#fff"/>
      <path id="Path_30" data-name="Path 30" d="M429.125,369.895a66.989,66.989,0,0,1,10.719-14.937" transform="translate(-420.776 -333.091)" fill="none" stroke="#000" stroke-width="0.25"/>
      <path id="Path_31" data-name="Path 31" d="M0,15.811A71.033,71.033,0,0,1,10.953,0" transform="translate(23.633 39.662) rotate(-6.024)" fill="none" stroke="#000" stroke-width="0.25"/>
      <path id="Path_32" data-name="Path 32" d="M439.452,369.353a64.571,64.571,0,0,0-10.327-14.4" transform="translate(-202.738 -332.999)" fill="none" stroke="#000" stroke-width="0.25"/>
      <path id="Path_33" data-name="Path 33" d="M0,0A67.747,67.747,0,0,0,10.553,15.088" transform="translate(220.546 54.88) rotate(-173.976)" fill="none" stroke="#000" stroke-width="0.25"/>
    </g>
  </g>
</svg>
