<svg xmlns="http://www.w3.org/2000/svg" width="60" height="40" viewBox="0 0 60 40">
  <path id="Icon_ionic-ios-laptop" data-name="Icon ionic-ios-laptop" d="M55.108,43.361V10.25a2.291,2.291,0,0,0-2.149-2.375H9.277A2.282,2.282,0,0,0,7.128,10.25V43.361H1.118a3.958,3.958,0,0,0,2.362,3.153,15.16,15.16,0,0,0,6.147,1.361H52.609a15.1,15.1,0,0,0,6.035-1.222,4.109,4.109,0,0,0,2.474-3.292h-6.01ZM31.118,8.986a.559.559,0,1,1-.5.556A.531.531,0,0,1,31.118,8.986ZM9.377,11.236H52.859a.266.266,0,0,1,.25.278V40.861a.266.266,0,0,1-.25.278H9.377a.266.266,0,0,1-.25-.278V11.514A.257.257,0,0,1,9.377,11.236ZM36.4,44.472H25.833a1.538,1.538,0,0,1-1.212-1.042H37.615A1.289,1.289,0,0,1,36.4,44.472Z" transform="translate(-1.118 -7.875)" fill="#fff"/>
</svg>
