<svg xmlns="http://www.w3.org/2000/svg" width="23" height="20" viewBox="0 0 23 20">
  <path id="Vector" d="M23,2.368a9.332,9.332,0,0,1-2.717.8A4.972,4.972,0,0,0,22.357.375,9.057,9.057,0,0,1,19.367,1.6,4.587,4.587,0,0,0,15.923,0a4.888,4.888,0,0,0-4.712,5.048A5.548,5.548,0,0,0,11.32,6.2,13.079,13.079,0,0,1,1.6.92,5.356,5.356,0,0,0,.956,3.471,5.155,5.155,0,0,0,3.05,7.665,4.425,4.425,0,0,1,.92,7.043V7.1A5,5,0,0,0,4.7,12.057a4.415,4.415,0,0,1-1.236.166,3.9,3.9,0,0,1-.893-.086,4.814,4.814,0,0,0,4.406,3.515A9.087,9.087,0,0,1,1.128,17.8,8.259,8.259,0,0,1,0,17.735,12.65,12.65,0,0,0,7.234,20c8.677,0,13.42-7.692,13.42-14.36,0-.223-.007-.438-.017-.652A9.8,9.8,0,0,0,23,2.368Z" fill="#07111a"/>
</svg>
